<svg width="200" height="77" viewBox="0 0 200 77" fill="none" xmlns="http://www.w3.org/2000/svg">
<g clip-path="url(#clip0_4003_4566)">
<path d="M104.727 22.5161H55.0178V31.7808H104.727V22.5161Z" fill="white"/>
<path d="M86.3065 77C74.7514 76.6444 68.9739 69.9251 68.9739 56.9545C68.9739 43.984 74.8265 37.4893 86.4566 37.4332C98.5931 37.4332 104.296 44.8449 103.583 59.7808H78.8783C79.2347 65.6203 81.767 68.5775 86.4566 68.5775C88.6888 68.5775 90.7897 67.6417 92.6655 65.8449C93.5284 64.9091 94.6164 64.4786 95.9107 64.4786H102.983C100.882 72.5455 95.6856 77.0187 86.3065 77.0187M79.0096 52.9118H93.3783C92.7968 47.8583 90.4146 45.2754 86.3065 45.2754C82.1985 45.2754 79.7411 47.8583 79.0096 52.9118ZM122.735 31.631H117.651V65.9759C117.651 67.5668 118.589 68.4278 120.465 68.4278H123.429V75.7086C120.334 75.9893 116.939 75.9893 113.318 75.6337C109.698 75.2781 107.972 73.0321 108.047 68.7834V13.8877H113.037C115.569 13.8877 117.67 16.1898 117.67 18.7166V22.516H127.518V26.8583C127.518 29.5909 125.417 31.6123 122.754 31.6123M144.513 77C132.958 76.6444 127.181 69.9251 127.181 56.9545C127.181 43.984 133.033 37.4893 144.663 37.4332C156.8 37.4332 162.502 44.8449 161.79 59.7808H137.085C137.441 65.6203 139.974 68.5775 144.663 68.5775C146.896 68.5775 148.996 67.6417 150.872 65.8449C151.735 64.9091 152.823 64.4786 154.117 64.4786H161.189C159.088 72.5455 153.892 77.0187 144.494 77.0187M137.216 52.9118H151.585C151.004 47.8583 148.621 45.2754 144.513 45.2754C140.405 45.2754 137.948 47.8583 137.216 52.9118ZM183.737 77C172.182 77 166.254 70.3556 165.973 57.254C165.973 44.2086 171.825 37.6578 183.605 37.4332C192.853 37.4332 198.331 41.5321 200 49.8235H189.533C188.389 47.2219 186.363 45.8556 183.324 45.8556C178.278 45.8556 175.746 49.6738 175.746 57.2353C175.746 64.7968 178.428 68.615 183.755 68.5588C185.988 68.5588 187.938 67.623 189.533 65.8262C190.471 64.8904 191.559 64.4599 192.778 64.4599H200C198.255 72.246 192.628 77.2059 183.737 77ZM33.052 0L5.98387 0.131016C0.656537 0.243316 0 5.63369 0 10.9492V77H25.9426C32.9769 77 38.398 76.4385 42.2622 75.4278C57.1 71.4786 65.2598 57.4599 65.2598 38.5749C65.2598 14.0374 57.5127 0 33.052 0ZM48.1898 30.6952C46.3328 34.5134 47.4207 36.385 47.4958 39.7353C47.946 57.5348 40.9492 60.5294 37.7603 61.1283C38.4543 61.1283 41.193 43.3476 32.2641 47.1845C23.0914 52.6684 20.3527 66.8556 19.6586 67.3048C13.6935 65.246 13.2433 53.8102 15.5318 45.1257C16.5823 41.6631 17.9704 40.2968 15.3817 34.6631C12.6055 29.123 11.4613 22.8155 11.4613 20.4011C11.7426 13.6444 15.8507 11.3797 18.6832 11.754C22.1534 12.2032 25.9051 14.861 27.8372 17.369C31.0448 21.5428 36.5973 19.5963 36.5973 19.5963C42.9375 15.9278 46.3515 14.7861 49.4654 18.3422C52.054 21.3182 50.6096 25.7166 48.1711 30.6952" fill="white"/>
</g>
<defs>
<clipPath id="clip0_4003_4566">
<rect width="200" height="77" fill="white"/>
</clipPath>
</defs>
</svg>
