<svg width="200" height="40" viewBox="0 0 200 40" fill="none" xmlns="http://www.w3.org/2000/svg">
<g clip-path="url(#clip0_6443_1995)">
<path d="M42.0952 14.9755C41.9399 15.711 41.7601 16.4383 41.5599 17.1574C40.236 21.9749 38.2216 26.588 35.7822 30.9478C34.4093 33.4035 32.8648 35.8224 30.7441 37.6775C29.7431 38.5519 28.4927 39.3242 27.177 39.1648C25.7428 38.9932 24.6682 37.7878 23.8387 36.6029C21.4484 33.1869 19.8753 29.2848 17.9875 25.5706C16.0998 21.8523 13.7953 18.1994 10.3793 15.809C9.68064 15.3187 8.88386 14.8733 8.02988 14.9101C7.09826 14.9551 6.2688 15.5925 5.78256 16.3852C5.29632 17.1819 5.10019 18.1176 4.97352 19.0452C4.13589 25.1865 6.02772 31.336 7.89504 37.2444C5.34535 32.3166 2.77932 27.3439 1.29609 21.9994C-0.583485 15.2247 -1.40069 4.95652 5.89697 1.04619C7.80515 0.0246777 10.1056 -0.306291 12.1813 0.3107C14.1589 0.903175 15.8056 2.28834 17.1744 3.83286C20.7129 7.83309 22.7396 13.0346 26.4824 16.8469C27.5325 17.9174 28.8278 18.9103 30.3274 18.943C32.0721 18.9798 33.5799 17.6886 34.5728 16.2544C36.1418 13.9907 36.8855 11.1673 36.6403 8.42148C36.4973 6.8075 35.9538 5.12814 34.6994 4.10254C33.5186 3.14232 31.8964 2.90942 30.3764 2.99523C27.2914 3.16275 24.2882 4.50706 22.1063 6.69309C23.6058 3.44878 26.9155 1.33221 30.3764 0.445539C32.9179 -0.20414 35.7455 -0.240915 38.0336 1.04619C40.1992 2.26791 41.6171 4.56426 42.2218 6.97502C42.8756 9.586 42.659 12.3155 42.0992 14.9714" fill="url(#paint0_linear_6443_1995)"/>
<path d="M90.8824 20.128C88.917 20.128 87.4215 18.563 87.4215 16.4301C87.4215 14.2972 88.9211 12.7363 90.8865 12.7363C92.8519 12.7363 94.3473 14.3054 94.3473 16.4342C94.3473 18.5426 92.8478 20.128 90.8824 20.128ZM94.5802 11.155C93.5996 10.0641 92.1899 9.27954 90.5146 9.27954C86.9639 9.27954 84.0546 12.3768 84.0505 16.426C84.0505 20.4549 86.9475 23.5848 90.5024 23.5848C92.1777 23.5848 93.5873 22.8043 94.5721 21.7174L94.8172 23.3519H97.6529L97.6652 9.52062H94.8295L94.5843 11.1509L94.5802 11.155ZM76.3974 9.2632C74.6527 9.2632 73.0918 10.0886 72.0376 11.6535C71.1468 10.1376 69.6064 9.25911 67.547 9.25503C66.0066 9.25503 64.7318 9.91696 63.7225 11.1714L63.4569 9.48793H60.6416L60.6294 23.3192H63.9595L63.9677 16.6875C63.9677 14.0357 64.9769 12.6628 66.8524 12.6628C68.5971 12.6628 69.4879 13.8273 69.4879 16.0297L69.4797 23.3273H72.8099L72.818 16.6957C72.818 14.0439 73.8273 12.671 75.7273 12.671C77.4475 12.671 78.3423 13.8355 78.3383 16.0378L78.3301 23.3355H81.6806L81.6888 15.188C81.6888 11.5391 79.6621 9.2632 76.3974 9.25911V9.2632ZM52.0977 23.548C55.8079 23.548 58.2881 21.3742 58.2922 18.1299C58.2922 15.523 56.7109 13.8396 53.2051 12.6996C50.7248 11.8905 50.0792 11.4165 50.0792 10.4441C50.0792 9.44707 50.9986 8.85868 52.5145 8.85868C53.7648 8.85868 54.8844 9.21417 56.2655 10.0722L57.9203 7.08943C56.2246 5.94942 54.5248 5.45093 52.4696 5.45093C48.9597 5.45093 46.5448 7.53072 46.5448 10.632C46.5448 13.3329 47.9504 14.7793 51.636 15.8499C54.0468 16.5609 54.7618 17.1329 54.7618 18.2933C54.7618 19.4538 53.7567 20.1402 52.1018 20.1402C50.5369 20.1402 49.2212 19.6417 47.5663 18.3832L45.887 21.3906C47.6072 22.7675 49.8177 23.5521 52.0977 23.5521V23.548Z" fill="#3C63AD"/>
<path d="M107.852 9.41431C106.266 9.41431 104.947 10.1457 103.962 11.3061L103.696 9.52872H100.901L100.889 23.3599H104.219L104.227 16.3524C104.227 14.293 105.302 12.9201 107.427 12.9201C107.807 12.9201 108.232 12.9692 108.657 13.0631V9.48785C108.391 9.43882 108.126 9.41431 107.856 9.41431H107.852Z" fill="#3C63AD"/>
<path d="M117.916 19.8461C117.491 20.2016 117.135 20.365 116.486 20.365C115.591 20.365 115.08 19.7725 115.08 18.7755V12.7813H118.574V9.53702H115.092V6.64819L111.742 7.28561V9.53702H109.887V12.7813H111.738V18.988C111.729 21.8564 113.356 23.6093 116.106 23.6134C117.47 23.6134 118.586 23.262 119.391 22.5756L117.92 19.8502L117.916 19.8461Z" fill="#3C63AD"/>
<path d="M199.371 10.1661C197.516 10.1661 195.906 11.253 195.011 12.7689L194.88 10.2356H193.585L193.573 23.4539H195.003L195.011 16.4178C195.011 13.7414 196.715 11.7066 199.195 11.7066C199.465 11.7066 199.775 11.7311 200 11.7556V10.2397C199.8 10.1907 199.62 10.1661 199.375 10.1661H199.371ZM184.935 11.4532C186.99 11.4532 188.555 12.7363 189 14.6322C189.09 14.9631 189.135 15.2941 189.135 15.6292L180.285 15.621C180.779 13.2061 182.659 11.4532 184.935 11.4573V11.4532ZM190.541 15.9356C190.541 12.4543 188.244 9.98635 184.959 9.98227C181.474 9.98227 178.72 13.0304 178.72 16.8713C178.72 20.7571 181.486 23.6746 185.172 23.6787C187.117 23.6787 188.747 23.0208 189.912 21.7623L188.976 20.6468C188.056 21.6152 186.671 22.2077 185.196 22.2077C182.316 22.2077 180.195 20.0012 180.15 16.9653L190.516 16.9776C190.541 16.7896 190.541 16.6915 190.541 15.9356ZM170.883 11.441C172.938 11.441 174.503 12.724 174.949 14.6199C175.038 14.9509 175.083 15.2819 175.083 15.6169L166.233 15.6087C166.727 13.1939 168.607 11.441 170.883 11.4451V11.441ZM176.489 15.9234C176.489 12.4421 174.193 9.97409 170.907 9.97001C167.422 9.97001 164.672 13.0182 164.668 16.8591C164.668 20.7449 167.434 23.6623 171.12 23.6664C173.065 23.6664 174.695 23.0085 175.86 21.75L174.92 20.6346C174.005 21.607 172.615 22.1954 171.144 22.1954C168.264 22.1954 166.143 19.989 166.098 16.953L176.464 16.9653C176.489 16.7773 176.489 16.6793 176.489 15.9234ZM156.586 9.95775C154.641 9.95775 153.166 10.9507 152.181 12.487L152.05 10.1907H150.755L150.743 23.409H152.173L152.181 16.3279C152.181 13.4595 153.885 11.4246 156.586 11.4287C159.136 11.4287 160.337 12.8793 160.337 15.9315L160.329 23.4172H161.738L161.747 15.3391C161.747 11.9272 159.875 9.95775 156.59 9.95775H156.586ZM142.109 11.4124C144.164 11.4124 145.729 12.6954 146.175 14.5913C146.265 14.9223 146.309 15.2533 146.309 15.5883L137.459 15.5801C137.954 13.1653 139.833 11.4124 142.109 11.4165V11.4124ZM147.715 15.8948C147.715 12.4135 145.419 9.94549 142.134 9.94141C138.648 9.94141 135.898 12.9896 135.894 16.8305C135.894 20.7163 138.66 23.6337 142.346 23.6378C144.291 23.6378 145.921 22.9799 147.086 21.7214L146.146 20.606C145.231 21.5744 143.842 22.1668 142.371 22.1668C139.49 22.1668 137.369 19.9604 137.324 16.9244L147.691 16.9326C147.715 16.7447 147.715 16.6466 147.715 15.8907V15.8948Z" fill="#4EBDED"/>
<path d="M134.619 5.75317L128.903 21.3863L123.227 5.75317H121.65L128.11 23.5479H129.688L136.197 5.75317H134.619Z" fill="#4EBDED"/>
<path d="M50.5613 28.8147H51.0884V31.7893L54.3041 28.8147H55.0151L52.5431 31.0988L55.1295 34.3431H54.4472L52.1467 31.4624L51.0843 32.4472V34.3472H50.5573V28.8147H50.5613Z" fill="#4E6394"/>
<path d="M56.7436 30.347H57.2625L58.5782 33.7548L59.8081 30.347H60.2944L58.5578 34.9479C58.4066 35.2993 58.2677 35.5322 58.141 35.6466C58.0103 35.761 57.8019 35.8182 57.5077 35.8182C57.3115 35.806 57.189 35.7937 57.1358 35.7774V35.3647C57.2666 35.3892 57.3769 35.4055 57.4668 35.4055C57.569 35.4055 57.6589 35.3933 57.7324 35.3647C57.806 35.3402 57.8672 35.2911 57.9204 35.2217C57.9735 35.1522 58.0143 35.0909 58.0389 35.0419C58.0634 34.9888 58.1042 34.903 58.1614 34.7763L58.3331 34.3268L56.7395 30.347H56.7436ZM58.4025 29.6728L58.3576 29.9589H58.0879L58.0021 29.5094L58.1247 29.395C58.2227 29.4358 58.3535 29.4563 58.521 29.4563C58.615 29.4563 58.6926 29.4318 58.758 29.3746C58.8234 29.3214 58.8561 29.2479 58.8561 29.1621C58.8561 28.9414 58.7171 28.827 58.4434 28.827C58.2105 28.827 58.0062 28.8638 57.8305 28.9373L57.7283 28.6881C57.9285 28.5819 58.1696 28.5247 58.4475 28.5247C58.6681 28.5247 58.8683 28.5819 59.0399 28.6963C59.2116 28.8107 59.3014 28.9741 59.3014 29.1907C59.3014 29.4072 59.2075 29.5503 59.0236 29.6197C58.8356 29.6892 58.6313 29.7055 58.4025 29.6687V29.6728Z" fill="#4E6394"/>
<path d="M66.3335 30.3471H66.8197V31.0376H66.8361C66.9301 30.7965 67.0935 30.6004 67.3305 30.4533C67.5675 30.3062 67.829 30.2327 68.1109 30.2327C68.6503 30.2327 69.0262 30.3634 69.2468 30.6249C69.4675 30.8864 69.5778 31.2705 69.5778 31.7731V34.3473H69.0916V31.8548C69.0916 31.0499 68.7524 30.6454 68.0782 30.6454C67.7023 30.6454 67.4 30.772 67.1752 31.0294C66.9505 31.2869 66.832 31.6137 66.8238 32.0183V34.3514H66.3376V30.3552L66.3335 30.3471Z" fill="#4E6394"/>
<path d="M75.5842 34.0204C75.5842 34.6415 75.4453 35.1155 75.1675 35.4424C74.8896 35.7692 74.4361 35.9327 73.8109 35.9327C73.3737 35.9327 72.9937 35.8305 72.675 35.6262C72.3563 35.4219 72.1847 35.1196 72.152 34.7232H72.6382C72.6832 34.997 72.818 35.1972 73.0346 35.328C73.2511 35.4546 73.5085 35.52 73.8109 35.52C74.669 35.52 75.098 35.0174 75.098 34.0163V33.4729H75.0817C74.9673 33.7262 74.7997 33.9264 74.5791 34.0735C74.3584 34.2206 74.101 34.2942 73.8109 34.2942C73.2021 34.2942 72.7485 34.1062 72.4503 33.7303C72.152 33.3544 72.0049 32.8559 72.0049 32.243C72.0049 31.671 72.1642 31.1929 72.487 30.8088C72.8098 30.4247 73.2511 30.2327 73.8068 30.2327C74.0928 30.2327 74.3503 30.3103 74.5832 30.4656C74.8161 30.6208 74.9795 30.8129 75.0776 31.0376H75.0939V30.3471H75.5802V34.0163L75.5842 34.0204ZM73.8109 33.8897C74.2154 33.8897 74.5301 33.7344 74.7548 33.4198C74.9836 33.1052 75.0939 32.7333 75.0939 32.3002C75.0939 31.8671 74.9877 31.4707 74.7711 31.1398C74.5587 30.8088 74.2359 30.6454 73.8068 30.6454C73.3778 30.6454 73.0468 30.8047 72.8221 31.1316C72.6014 31.4544 72.487 31.8467 72.487 32.3043C72.487 32.7619 72.6014 33.1174 72.8262 33.4279C73.0509 33.7385 73.3778 33.8938 73.8068 33.8938L73.8109 33.8897Z" fill="#4E6394"/>
<path d="M81.456 34.3432H81.0065V33.6241H80.9902C80.8676 33.8856 80.6837 34.0899 80.4386 34.237C80.1934 34.38 79.9196 34.4536 79.6132 34.4536C78.6775 34.4536 78.2117 33.951 78.2117 32.9417V30.3471H78.6979V32.9499C78.7102 33.3217 78.796 33.5996 78.9594 33.7794C79.1229 33.9592 79.3925 34.0491 79.7684 34.0491C80.1444 34.0491 80.459 33.8938 80.6633 33.5792C80.8676 33.2645 80.9697 32.8886 80.9697 32.4432V30.343H81.456V34.3392V34.3432Z" fill="#4E6394"/>
<path d="M83.6297 30.3469H84.1486L85.4643 33.7547L86.6942 30.3469H87.1805L85.4439 34.9478C85.2927 35.2992 85.1538 35.5321 85.0271 35.6465C84.8964 35.7609 84.688 35.8181 84.3938 35.8181C84.1977 35.8059 84.0751 35.7936 84.022 35.7773V35.3646C84.1527 35.3891 84.263 35.4054 84.3529 35.4054C84.4551 35.4054 84.545 35.3932 84.6185 35.3646C84.6921 35.3401 84.7534 35.291 84.8065 35.2216C84.8596 35.1521 84.9005 35.0908 84.925 35.0418C84.9495 34.9887 84.9903 34.9029 85.0475 34.7762L85.2192 34.3267L83.6256 30.3469H83.6297Z" fill="#4E6394"/>
<path d="M89.6566 32.48C89.6566 32.8886 89.771 33.2523 89.9957 33.571C90.2205 33.8897 90.5473 34.0531 90.9764 34.0531C91.6424 34.0531 92.0633 33.714 92.2308 33.0316H92.717C92.5005 33.9837 91.9202 34.4577 90.9723 34.4577C90.3676 34.4577 89.9181 34.2615 89.6157 33.8652C89.3174 33.4688 89.1663 32.9663 89.1663 32.3493C89.1663 31.9774 89.2235 31.6383 89.346 31.3318C89.4645 31.0254 89.6648 30.7639 89.9467 30.5514C90.2286 30.3389 90.5719 30.2327 90.9723 30.2327C91.3727 30.2327 91.7241 30.343 91.9979 30.5678C92.2757 30.7884 92.4678 31.0663 92.5822 31.3972C92.6966 31.7282 92.7456 32.0878 92.7293 32.48H89.6525H89.6566ZM92.2471 32.0673C92.2349 31.6792 92.1164 31.3441 91.8835 31.0622C91.6506 30.7802 91.3482 30.6413 90.9764 30.6413C90.6045 30.6413 90.2981 30.7802 90.0693 31.054C89.8405 31.3318 89.7056 31.6669 89.6566 32.0673H92.243H92.2471ZM92.0673 29.7914H91.5648L90.8987 29.0028L90.2164 29.7914H89.7669L90.6495 28.7004H91.1848L92.0673 29.7914Z" fill="#4E6394"/>
<path d="M95.0869 30.3471H95.5731V31.0376H95.5895C95.6835 30.7965 95.8469 30.6004 96.0839 30.4533C96.3209 30.3062 96.5824 30.2327 96.8643 30.2327C97.4037 30.2327 97.7796 30.3634 98.0003 30.6249C98.2209 30.8864 98.3312 31.2705 98.3312 31.7731V34.3473H97.845V31.8548C97.845 31.0499 97.5058 30.6454 96.8316 30.6454C96.4557 30.6454 96.1534 30.772 95.9286 31.0294C95.7039 31.2869 95.5854 31.6137 95.5772 32.0183V34.3514H95.091V30.3552L95.0869 30.3471Z" fill="#4E6394"/>
<path d="M104.816 30.3471H105.265V31.0213H105.29C105.564 30.4942 106.001 30.2327 106.597 30.2327C106.871 30.2327 107.112 30.298 107.321 30.4329C107.529 30.5677 107.672 30.7598 107.741 31.0131C107.856 30.7598 108.027 30.5677 108.256 30.4329C108.485 30.298 108.738 30.2327 109.012 30.2327C109.895 30.2327 110.336 30.6985 110.336 31.6342V34.3473H109.85V31.6587C109.85 31.3196 109.776 31.0621 109.633 30.8946C109.49 30.7271 109.245 30.6413 108.906 30.6413C108.183 30.6413 107.823 31.1234 107.823 32.0836V34.3432H107.337V31.6301C107.337 30.9682 107.059 30.6372 106.499 30.6372C106.103 30.6372 105.805 30.772 105.604 31.0376C105.404 31.3073 105.306 31.6628 105.306 32.1082V34.3391H104.82V30.343L104.816 30.3471Z" fill="#4E6394"/>
<path d="M115.468 30.4001C115.656 30.4859 115.815 30.6003 115.95 30.7392L116.081 30.8618C116.183 30.9639 116.265 31.0334 116.326 31.0661C116.387 31.0988 116.477 31.1151 116.6 31.1151C116.759 31.1151 116.865 31.0579 116.919 30.9394C116.972 30.825 116.996 30.6248 116.996 30.3388H117.368C117.368 30.727 117.319 31.0007 117.221 31.1683C117.123 31.3358 116.931 31.4175 116.649 31.4175C116.547 31.4175 116.453 31.4012 116.371 31.3726L116.432 31.5278C116.514 31.7771 116.555 32.0467 116.555 32.3409C116.555 32.9457 116.387 33.4483 116.052 33.8487C115.717 34.2491 115.256 34.4493 114.667 34.4493C114.079 34.4493 113.617 34.2491 113.282 33.8487C112.947 33.4483 112.779 32.9457 112.779 32.3409C112.779 31.7362 112.947 31.2418 113.282 30.8332C113.617 30.4287 114.079 30.2244 114.667 30.2244C114.978 30.2244 115.247 30.2816 115.472 30.396L115.468 30.4001ZM113.262 32.345C113.262 32.8068 113.384 33.2031 113.633 33.5422C113.883 33.8814 114.226 34.0489 114.663 34.0489C115.1 34.0489 115.444 33.8814 115.693 33.5422C115.942 33.2031 116.065 32.8068 116.065 32.345C116.065 31.8833 115.942 31.487 115.693 31.1478C115.444 30.8087 115.1 30.6412 114.663 30.6412C114.226 30.6412 113.883 30.8087 113.633 31.1478C113.384 31.487 113.262 31.8874 113.262 32.345ZM115.779 28.7371H115.174L114.361 29.828H114.757L115.779 28.7371Z" fill="#4E6394"/>
<path d="M119.758 28.8147H120.245V29.5951H119.758V28.8147ZM119.758 30.347H120.245V34.3431H119.758V30.347Z" fill="#4E6394"/>
<path d="M126.745 32.439V31.9895H128.682V32.439H126.745Z" fill="#4E6394"/>
<path d="M135.261 28.8147H135.849L139.073 33.4932H139.089V28.8147H139.617V34.3472H139.028L135.804 29.6687H135.788V34.3472H135.261V28.8147Z" fill="#4E6394"/>
<path d="M145.57 34.3432H145.12V33.6241H145.104C144.981 33.8856 144.798 34.0899 144.552 34.237C144.307 34.38 144.034 34.4536 143.727 34.4536C142.791 34.4536 142.326 33.951 142.326 32.9417V30.3471H142.812V32.9499C142.824 33.3217 142.91 33.5996 143.073 33.7794C143.237 33.9592 143.506 34.0491 143.882 34.0491C144.258 34.0491 144.573 33.8938 144.777 33.5792C144.981 33.2645 145.084 32.8886 145.084 32.4432V30.343H145.57V34.3392V34.3432ZM143.678 35.5936V34.8131H144.205V35.5936H143.678Z" fill="#4E6394"/>
<path d="M154.874 31.6014C154.735 30.9598 154.359 30.6411 153.742 30.6411C153.305 30.6411 152.961 30.8087 152.712 31.1478C152.463 31.487 152.34 31.8874 152.34 32.345C152.34 32.8027 152.463 33.2031 152.712 33.5422C152.961 33.8814 153.305 34.0489 153.742 34.0489C154.04 34.0489 154.302 33.9427 154.522 33.722C154.743 33.5055 154.87 33.2358 154.902 32.9089H155.389C155.323 33.3951 155.143 33.7751 154.853 34.0448C154.563 34.3145 154.191 34.4493 153.738 34.4493C153.149 34.4493 152.688 34.2491 152.353 33.8487C152.018 33.4482 151.85 32.9457 151.85 32.3409C151.85 31.7362 152.018 31.2418 152.353 30.8332C152.688 30.4287 153.149 30.2244 153.738 30.2244C154.183 30.2244 154.547 30.3429 154.837 30.5717C155.127 30.8046 155.299 31.1437 155.356 31.5932H154.87L154.874 31.6014Z" fill="#4E6394"/>
<path d="M161.015 34.3432H160.566V33.624H160.549C160.427 33.8855 160.243 34.0898 159.998 34.2369C159.752 34.38 159.479 34.4535 159.172 34.4535C158.237 34.4535 157.771 33.9509 157.771 32.9417V30.347H158.257V32.9498C158.269 33.3217 158.355 33.5995 158.519 33.7793C158.682 33.9591 158.952 34.049 159.328 34.049C159.703 34.049 160.018 33.8937 160.222 33.5791C160.427 33.2645 160.529 32.8886 160.529 32.4432V30.343H161.015V30.9845L161.04 31.0049C161.138 31.0784 161.26 31.1152 161.403 31.1152C161.563 31.1152 161.669 31.058 161.722 30.9395C161.775 30.821 161.8 30.6249 161.8 30.3389H162.171C162.171 30.727 162.122 31.0008 162.024 31.1683C161.926 31.3359 161.734 31.4176 161.452 31.4176C161.338 31.4176 161.244 31.3972 161.166 31.3645C161.146 31.3563 161.117 31.3399 161.085 31.3236C161.052 31.3073 161.027 31.295 161.019 31.2909V34.3432H161.015Z" fill="#4E6394"/>
<path d="M167.214 30.4001C167.402 30.4859 167.561 30.6003 167.696 30.7392L167.827 30.8618C167.929 30.9639 168.01 31.0334 168.072 31.0661C168.133 31.0988 168.223 31.1151 168.345 31.1151C168.505 31.1151 168.611 31.0579 168.664 30.9394C168.717 30.8209 168.742 30.6248 168.742 30.3388H169.114C169.114 30.727 169.065 31.0007 168.967 31.1683C168.868 31.3358 168.676 31.4175 168.395 31.4175C168.292 31.4175 168.198 31.4012 168.117 31.3726L168.178 31.5278C168.26 31.7771 168.301 32.0467 168.301 32.3409C168.301 32.9457 168.133 33.4483 167.798 33.8487C167.463 34.2491 167.001 34.4493 166.413 34.4493C165.824 34.4493 165.363 34.2491 165.028 33.8487C164.693 33.4483 164.525 32.9457 164.525 32.3409C164.525 31.7362 164.693 31.2418 165.028 30.8332C165.363 30.4287 165.824 30.2244 166.413 30.2244C166.723 30.2244 166.993 30.2816 167.218 30.396L167.214 30.4001ZM165.003 32.345C165.003 32.8068 165.126 33.2031 165.375 33.5422C165.624 33.8814 165.967 34.0489 166.405 34.0489C166.842 34.0489 167.185 33.8814 167.434 33.5422C167.684 33.2031 167.806 32.8068 167.806 32.345C167.806 31.8833 167.684 31.487 167.434 31.1478C167.185 30.8087 166.842 30.6412 166.405 30.6412C165.967 30.6412 165.624 30.8087 165.375 31.1478C165.126 31.487 165.003 31.8874 165.003 32.345ZM167.12 29.828H167.516L166.703 28.7371H166.106L167.12 29.828Z" fill="#4E6394"/>
<path d="M171.504 28.8147H171.99V29.5951H171.504V28.8147ZM171.504 30.347H171.99V34.3431H171.504V30.347Z" fill="#4E6394"/>
<path d="M178.491 30.3471H178.941V31.0213H178.965C179.239 30.4942 179.676 30.2327 180.273 30.2327C180.546 30.2327 180.787 30.298 180.996 30.4329C181.204 30.5677 181.347 30.7598 181.417 31.0131C181.531 30.7598 181.703 30.5677 181.932 30.4329C182.16 30.298 182.414 30.2327 182.687 30.2327C183.57 30.2327 184.011 30.6985 184.011 31.6342V34.3473H183.525V31.6587C183.525 31.3196 183.452 31.0621 183.309 30.8946C183.166 30.7271 182.92 30.6413 182.581 30.6413C181.858 30.6413 181.498 31.1234 181.498 32.0836V34.3432H181.012V31.6301C181.012 30.9682 180.734 30.6372 180.175 30.6372C179.778 30.6372 179.48 30.772 179.28 31.0376C179.079 31.3073 178.981 31.6628 178.981 32.1082V34.3391H178.495V30.343L178.491 30.3471Z" fill="#4E6394"/>
<path d="M189.143 30.4001C189.331 30.4859 189.491 30.6003 189.625 30.7392L189.756 30.8618C189.858 30.9639 189.94 31.0334 190.001 31.0661C190.063 31.0988 190.153 31.1151 190.275 31.1151C190.435 31.1151 190.541 31.0579 190.594 30.9394C190.647 30.825 190.672 30.6248 190.672 30.3388H191.043C191.043 30.727 190.994 31.0007 190.896 31.1683C190.798 31.3358 190.606 31.4175 190.324 31.4175C190.222 31.4175 190.128 31.4012 190.046 31.3726L190.108 31.5278C190.189 31.7771 190.23 32.0467 190.23 32.3409C190.23 32.9457 190.063 33.4483 189.728 33.8487C189.393 34.2491 188.931 34.4493 188.342 34.4493C187.754 34.4493 187.292 34.2491 186.957 33.8487C186.622 33.4483 186.455 32.9457 186.455 32.3409C186.455 31.7362 186.622 31.2418 186.957 30.8332C187.292 30.4287 187.754 30.2244 188.342 30.2244C188.653 30.2244 188.923 30.2816 189.147 30.396L189.143 30.4001ZM186.933 32.345C186.933 32.8068 187.055 33.2031 187.305 33.5422C187.554 33.8814 187.897 34.0489 188.334 34.0489C188.771 34.0489 189.115 33.8814 189.364 33.5422C189.613 33.2031 189.736 32.8068 189.736 32.345C189.736 31.8833 189.613 31.487 189.364 31.1478C189.115 30.8087 188.771 30.6412 188.334 30.6412C187.897 30.6412 187.554 30.8087 187.305 31.1478C187.055 31.487 186.933 31.8874 186.933 32.345ZM189.45 28.7371H188.845L188.032 29.828H188.428L189.45 28.7371Z" fill="#4E6394"/>
<path d="M193.434 28.8147H193.92V29.5951H193.434V28.8147ZM193.434 30.347H193.92V34.3431H193.434V30.347Z" fill="#4E6394"/>
</g>
<defs>
<linearGradient id="paint0_linear_6443_1995" x1="-10.9743" y1="19.3761" x2="38.9939" y2="19.6376" gradientUnits="userSpaceOnUse">
<stop stop-color="#3C63AD"/>
<stop offset="0.39" stop-color="#3C63AD"/>
<stop offset="1" stop-color="#39C5EF"/>
</linearGradient>
<clipPath id="clip0_6443_1995">
<rect width="200" height="40" fill="white"/>
</clipPath>
</defs>
</svg>
